<svg width="272" height="76" viewBox="0 0 272 76" fill="none" xmlns="http://www.w3.org/2000/svg">
<path fill-rule="evenodd" clip-rule="evenodd" d="M36 35.3838V45.8625L57.5425 67.41L62.7925 62.16L36 35.3838ZM36 18.7587V29.2588L65.875 59.1263L71.1125 53.8538L36 18.7587ZM79.1538 14.64V8.59625H65.5925C65.5925 13.4962 63.6688 14.9187 61.8338 14.9187H56.6538V14.445C56.6424 13.903 56.8291 13.3754 57.1789 12.9612C57.5287 12.547 58.0175 12.2746 58.5538 12.195H60.2375C62.9588 11.87 62.81 9.56 62.8525 8.59H53.7363C50.5413 8.59 48.77 11.2462 47.6013 14.2237L47.4288 14.6975L45.8513 14.7187V8.59375H36.0025V12.6437L74.1688 50.7913L79.4275 45.535L68.6188 34.7325H79.2225V23.94H78.4038C77.7592 24.7538 76.9281 25.4004 75.9807 25.8249C75.0333 26.2494 73.9976 26.4394 72.9613 26.3788L67.4513 26.3125C66.5015 26.3232 65.5863 25.9565 64.9067 25.293C64.227 24.6296 63.8384 23.7235 63.8263 22.7738C63.8644 22.2671 64.0043 21.7734 64.2375 21.322C64.4706 20.8707 64.7923 20.4709 65.1834 20.1466C65.5745 19.8223 66.0268 19.58 66.5135 19.4344C67.0003 19.2887 67.5113 19.2426 68.0163 19.2987H74.5625C75.7572 19.1928 76.8755 18.6661 77.718 17.8124C78.5605 16.9587 79.0724 15.8335 79.1625 14.6375" fill="#A91E2A"/>
<path fill-rule="evenodd" clip-rule="evenodd" d="M201.832 17.247V29.4645H212.57L210.413 38.0895H201.83V51.062H212.977V59.6957H192.852V8.59195H212.977V17.247H201.832Z" fill="#211C18"/>
<path fill-rule="evenodd" clip-rule="evenodd" d="M177.629 17.2475L174.562 29.465H169.437L167.253 38.09H172.398L166.977 59.6963H189.613V51.0625H179.139L182.389 38.09H187.52L189.685 29.465H184.554L189.804 8.59H166.98V17.245L177.629 17.2475Z" fill="#211C18"/>
<path fill-rule="evenodd" clip-rule="evenodd" d="M89.0938 8.59195H105.576C107.569 8.60184 109.478 9.39917 110.885 10.8101C112.293 12.2211 113.086 14.1314 113.091 16.1245V53.1395C113.091 57.2845 109.7 59.702 105.576 59.702H89.0938V8.59195ZM97.9288 17.247H102.898C103.255 17.2443 103.599 17.3836 103.854 17.6344C104.109 17.8852 104.254 18.2268 104.258 18.5845V49.7095C104.252 50.0686 104.107 50.4114 103.853 50.6655C103.599 50.9196 103.257 51.0649 102.898 51.0707H97.925L97.9288 17.247Z" fill="#211C18"/>
<path fill-rule="evenodd" clip-rule="evenodd" d="M125.523 17.247V29.4645H136.262L134.105 38.0895H125.523V51.062H136.669V59.6957H116.688V8.59195H136.669V17.247H125.523Z" fill="#211C18"/>
<path fill-rule="evenodd" clip-rule="evenodd" d="M140.263 8.59195H156.763C158.76 8.59656 160.674 9.39145 162.086 10.8029C163.499 12.2143 164.295 14.1276 164.302 16.1245V59.7007H155.443V18.5845C155.441 18.2302 155.3 17.891 155.049 17.6405C154.799 17.39 154.46 17.2486 154.105 17.247H149.093V59.702H140.258L140.263 8.59195Z" fill="#211C18"/>
<path fill-rule="evenodd" clip-rule="evenodd" d="M216.501 8.59195H225.327V51.0682H236V59.702H216.5L216.501 8.59195Z" fill="#211C18"/>
</svg>
