<svg width="272" height="76" viewBox="0 0 272 76" fill="none" xmlns="http://www.w3.org/2000/svg">
<g clip-path="url(#clip0_1629_16091)">
<path d="M158.457 23.7145C189.271 23.7145 216.086 25.9002 232.543 29.2859L236 16.4287C216.586 12.4145 191.1 10.0573 162.657 10.0573C128.686 10.0573 97.1569 13.4145 74.0855 18.7716C67.8712 20.2002 61.2284 21.2002 56.4712 25.9145C52.0426 30.3287 51.9426 35.9145 61.1141 40.9002C59.8855 39.9145 59.3712 38.8859 59.6855 37.8287C61.7141 29.9859 106 23.7145 158.457 23.7145Z" fill="#007FA6"/>
<path d="M52.5143 25.3427C45.9143 29.8998 47.0572 38.1998 66.3857 43.5713C79.9143 48.4998 112.243 51.9284 150.871 51.9284C170.657 51.9284 189.257 51.0284 204.886 49.4998L207.871 38.3141H230.1L224.386 59.7427C199.052 64.071 173.387 66.1695 147.686 66.0141C81.9715 66.0141 32.1143 53.4998 36.2572 38.0713C37.4286 33.4427 43.2572 29.1427 52.5143 25.3427Z" fill="#007EA7"/>
<path d="M173.743 44.7573H158.028C158.028 44.7573 157.7 44.7573 157.814 44.3144L158.471 41.8859C158.471 41.8859 158.471 41.4287 159.157 41.4287H169.071C169.071 41.4287 169.628 41.5144 169.743 41.0144C169.857 40.5144 170.028 39.9859 170.028 39.9859C170.028 39.9859 170.028 39.6144 169.571 39.6144H161.486C160.057 39.6144 159.2 38.8859 159.657 37.1573L160.828 32.8002C161.065 32.1597 161.494 31.6082 162.057 31.2219C162.62 30.8356 163.289 30.6333 163.971 30.643H179.971C180.257 30.643 180.586 30.7144 180.486 31.0859C180.386 31.4573 179.957 33.0573 179.914 33.2573C179.893 33.4153 179.811 33.5588 179.685 33.6575C179.56 33.7561 179.401 33.8021 179.243 33.7859H169.686C169.686 33.7859 169.1 33.7002 168.971 34.2002L168.757 35.0002C168.757 35.0002 168.614 35.4859 169.228 35.4859H176.257C177.428 35.4859 179.114 35.7859 178.571 37.943C178.028 40.1002 177.514 41.8859 177.514 41.8859C177.342 42.7402 176.864 43.5023 176.169 44.0286C175.475 44.5548 174.612 44.8089 173.743 44.743V44.7573ZM103.528 37.0144H113.957L113.614 38.2859L113.443 38.9716L112.643 41.9144C112.442 42.77 111.944 43.5267 111.238 44.0498C110.531 44.5729 109.663 44.8287 108.786 44.7716H94.1284C94.1284 44.7716 90.957 45.043 91.7855 41.9144L94.0427 33.4716C94.244 32.6134 94.744 31.8548 95.4532 31.3314C96.1624 30.808 97.0347 30.5538 97.9141 30.6144H112.571C112.571 30.6144 115.743 30.343 114.914 33.4716L114.371 35.4716H106.428L106.728 34.3144C106.9 33.6859 106.343 33.8002 106.343 33.8002H103.043C103.043 33.8002 102.557 33.6859 102.386 34.3144L100.6 40.9716C100.428 41.6287 100.971 41.5144 100.971 41.5144H104.286C104.286 41.5144 104.771 41.6287 104.957 40.9716L105.486 38.9716H103.014L103.528 37.0144ZM134.086 30.643H117.6C117.488 30.6613 117.384 30.7136 117.302 30.7927C117.22 30.8719 117.165 30.9742 117.143 31.0859L116.5 33.5144C116.484 33.5705 116.484 33.6298 116.5 33.6859L113.757 43.9002C113.6 44.5144 113.871 44.7573 114.486 44.7573H122.086L124.571 35.4002L124.814 34.4859L125.014 33.7144H128.157C128.157 33.7144 128.743 33.643 128.614 34.1287L128.343 35.1573C128.274 35.2734 128.176 35.3691 128.057 35.4344C127.939 35.4997 127.806 35.5322 127.671 35.5287H126.071L125.3 38.3859L127.843 44.7716H134.071L131.543 38.3859H132.057C132.856 38.4692 133.659 38.2667 134.324 37.8143C134.988 37.3619 135.47 36.6888 135.686 35.9144C136.257 33.7573 136.328 33.5287 136.328 33.5287C136.328 33.5287 137.428 30.6716 134.086 30.6716V30.643ZM194.571 44.7573C195.44 44.8201 196.301 44.5648 196.995 44.0391C197.689 43.5133 198.168 42.7531 198.343 41.9002C198.343 41.9002 198.814 40.1144 199.4 37.9573C199.986 35.8002 198.243 35.5002 197.086 35.5002H190.057C189.443 35.5002 189.586 35.0144 189.586 35.0144C189.586 35.0144 189.586 34.7002 189.8 34.2144C190.014 33.7287 190.514 33.8002 190.514 33.8002H200.071C200.23 33.8164 200.389 33.7704 200.514 33.6717C200.639 33.5731 200.721 33.4296 200.743 33.2716C200.743 33.0716 201.214 31.4859 201.314 31.1002C201.414 30.7144 201.086 30.6573 200.8 30.6573H184.8C184.116 30.6488 183.446 30.8513 182.881 31.2373C182.316 31.6233 181.883 32.174 181.643 32.8144C181.643 32.8144 180.957 35.4287 180.486 37.1716C180.014 38.9144 180.871 39.6287 182.314 39.6287H190.428C190.914 39.6287 190.9 40.0002 190.9 40.0002C190.9 40.0002 190.757 40.543 190.614 41.0287C190.574 41.169 190.483 41.2892 190.359 41.3659C190.234 41.4425 190.086 41.47 189.943 41.443H180.028C179.386 41.443 179.328 41.9002 179.328 41.9002L178.686 44.3287C178.571 44.743 178.886 44.7716 178.886 44.7716L194.571 44.7573ZM156.557 30.643H141.886C141.009 30.5859 140.14 30.8417 139.433 31.3648C138.727 31.8879 138.229 32.6446 138.028 33.5002L135.757 41.943C134.928 45.0573 138.1 44.8002 138.1 44.8002H152.771C153.648 44.8572 154.517 44.6015 155.223 44.0784C155.93 43.5552 156.427 42.7986 156.628 41.943L158.857 33.4716C159.686 30.3716 156.528 30.6144 156.528 30.6144L156.557 30.643ZM150.286 33.8002C150.286 33.8002 150.843 33.6859 150.671 34.3144L148.886 40.9716C148.714 41.6287 148.214 41.5144 148.214 41.5144H144.957C144.957 41.5144 144.4 41.6287 144.586 40.9716L146.357 34.3144C146.528 33.6859 147.028 33.8002 147.028 33.8002H150.286Z" fill="black"/>
<path d="M205.2 33.7145L206.043 30.9716H204.7L204.885 30.4145H208.471L208.3 30.9716H206.957L206.114 33.7145H205.2ZM208.057 33.7145H208.857L209.657 31.1145L209.757 33.7145H210.628L212.328 31.1145L211.543 33.7145H212.385L213.414 30.4145H211.985L210.557 32.6573L210.428 30.4145H209L208.057 33.7145Z" fill="black"/>
</g>
<defs>
<clipPath id="clip0_1629_16091">
<rect width="200" height="57.1429" fill="white" transform="translate(36 9.42856)"/>
</clipPath>
</defs>
</svg>
