<svg width="272" height="76" viewBox="0 0 272 76" fill="none" xmlns="http://www.w3.org/2000/svg">
<path fill-rule="evenodd" clip-rule="evenodd" d="M159.35 39.6783L156.115 52.1724H145.853L148.986 40.0897C149.096 39.6928 149.165 39.3383 149.195 39.0238C149.296 37.8477 148.839 37.2465 147.813 37.2465C146.366 37.2465 145.302 38.596 144.611 41.2862L141.78 52.1724H131.532L134.657 40.0897C134.746 39.6928 134.829 39.3255 134.853 39.0238C134.959 37.8477 134.494 37.2465 133.467 37.2465C132.01 37.2465 130.944 38.596 130.25 41.2862L127.424 52.1724H117.191L122.876 30.5448H133.102L132.318 33.21C134.687 30.9257 137.309 29.7783 140.207 29.7815C142.914 29.7783 144.662 30.9257 145.475 33.21C147.912 30.9257 150.651 29.7783 153.702 29.7783C158.248 29.7783 160.33 32.0849 159.906 36.6822C159.817 37.5838 159.63 38.5864 159.35 39.6783Z" fill="#E51D3D"/>
<path fill-rule="evenodd" clip-rule="evenodd" d="M182.228 30.766L180.294 38.256H176.739L173.152 52.1724H162.598L166.211 38.256H163.394L165.33 30.766H168.143L169.999 23.5026H180.554L178.674 30.766H182.228Z" fill="#E51D3D"/>
<path fill-rule="evenodd" clip-rule="evenodd" d="M213.739 30.766L202.975 40.7865L209.297 52.1724H196.926L194.831 46.9826L190.024 52.1724H177.645L189.828 40.7865L184.289 30.766H196.657L197.789 35.487L201.344 30.766H213.739Z" fill="#E51D3D"/>
<path fill-rule="evenodd" clip-rule="evenodd" d="M59.6913 38.7496C54.0122 46.2291 52.0051 53.5917 56.0639 57.7443C62.1763 64.0519 76.3931 62.1809 90.6936 53.3883H90.7765C74.6536 63.2755 56.7421 67.1836 51.4457 60.2279C47.7337 55.3408 51.4676 46.4544 59.2434 37.6705L59.6913 38.7496ZM90.599 15.762C101.913 11.2858 111.872 10.8266 115.746 15.9195C118.998 20.1817 117.959 25.3142 115.078 30.3315L114.946 30.2828C116.918 25.909 117.102 21.4424 113.486 17.7445C109.345 13.4804 100.891 13.4563 91.273 16.6968L90.599 15.762ZM70.0868 25.0721C67.8167 24.8181 65.4969 24.5637 63.1416 24.3015C60.7358 24.0376 58.274 23.7686 55.7849 23.4973C54.9275 21.7096 54.0873 19.9614 53.2594 18.2415C52.4507 16.5539 51.6546 14.8927 50.8686 13.2551C53.2754 13.612 55.6598 13.967 57.9873 14.3124C60.2675 14.6506 62.5163 14.9865 64.7268 15.3151C65.5856 16.8793 66.454 18.465 67.3411 20.0739C68.2427 21.7105 69.1525 23.3749 70.0868 25.0721ZM79.1225 17.4546C77.1709 17.1679 75.1838 16.8702 73.1708 16.5726C71.1168 16.2658 69.02 15.955 66.8987 15.6377C67.768 17.1925 68.6486 18.7663 69.5398 20.3601C70.45 21.9868 71.3744 23.6371 72.3179 25.3201C74.5034 25.5581 76.6498 25.8003 78.7529 26.0342C80.8183 26.265 82.8532 26.4902 84.8457 26.7105C83.8563 25.1085 82.8805 23.5306 81.9215 21.9767C80.9758 20.4498 80.0437 18.9438 79.1225 17.4546ZM91.9161 19.3625C90.1721 19.1013 88.4103 18.8373 86.6134 18.571C84.787 18.2998 82.9356 18.0276 81.049 17.7436C81.9734 19.2214 82.9105 20.7138 83.8613 22.2334C84.828 23.7718 85.8088 25.3392 86.8096 26.9276C88.7361 27.1424 90.6231 27.3545 92.4828 27.5621C94.3133 27.7687 96.1051 27.9667 97.8769 28.1665C96.8461 26.6404 95.8339 25.1472 94.8339 23.6694C93.8468 22.2157 92.876 20.7839 91.9161 19.3625ZM71.0335 26.7929C68.7488 26.5558 66.4194 26.3159 64.0473 26.0715C61.6347 25.8212 59.1592 25.5636 56.6533 25.3055C57.5426 27.157 58.4483 29.0399 59.3686 30.9569C60.3089 32.9207 61.2619 34.9101 62.2377 36.9432C64.8342 37.0934 67.3902 37.2435 69.8811 37.3896C72.3233 37.5316 74.7255 37.6714 77.0685 37.8038C76.0176 35.8868 74.9863 34.003 73.9732 32.1529C72.9765 30.3347 71.9943 28.5502 71.0335 26.7929ZM85.8556 28.3372C83.854 28.1296 81.8055 27.9148 79.7369 27.7009C77.6228 27.4783 75.4665 27.2553 73.2727 27.0278C74.2476 28.7663 75.238 30.5413 76.2452 32.3377C77.2733 34.1755 78.3146 36.0393 79.3737 37.9417C81.623 38.0755 83.8372 38.2048 86.0017 38.3322C88.1194 38.4565 90.2076 38.5834 92.252 38.7036C91.1374 36.9045 90.0478 35.1354 88.9701 33.3936C87.9146 31.6823 86.8765 29.9956 85.8556 28.3372ZM98.9205 29.7085C97.1464 29.5241 95.3473 29.3321 93.5127 29.1409C91.6467 28.9447 89.7538 28.7454 87.82 28.5429C88.854 30.1886 89.9008 31.8617 90.9599 33.5566C92.0422 35.2824 93.1431 37.0378 94.26 38.8237C96.2344 38.9407 98.1609 39.0563 100.056 39.1701C101.924 39.2839 103.753 39.3936 105.555 39.501C104.404 37.8038 103.275 36.1371 102.162 34.4914C101.067 32.872 99.9851 31.2764 98.9205 29.7085ZM78.134 39.7618C75.786 39.6448 73.3701 39.5196 70.9184 39.3986C68.412 39.2734 65.8446 39.1469 63.2345 39.0199C64.2489 41.1331 65.2862 43.2936 66.3393 45.4873C67.4139 47.7224 68.5148 50.0217 69.6349 52.3488C72.3274 52.336 74.9813 52.3278 77.56 52.3165C80.0896 52.3083 82.5673 52.2964 84.9886 52.2882C83.7926 50.1073 82.6174 47.95 81.4673 45.85C80.3422 43.7851 79.2267 41.7511 78.134 39.7618ZM93.3789 40.535C91.3313 40.4308 89.2341 40.3284 87.1082 40.2169C84.9354 40.1063 82.7103 39.9943 80.4537 39.8778C81.5538 41.8499 82.6716 43.8652 83.8103 45.9078C84.9695 47.9864 86.1583 50.1227 87.3594 52.2778C89.6787 52.2705 91.9516 52.26 94.1786 52.2536C96.3459 52.2432 98.4886 52.2373 100.575 52.2268C99.3297 50.1969 98.0972 48.1903 96.8857 46.2291C95.7032 44.3026 94.5272 42.3969 93.3789 40.535ZM106.722 41.2241C104.913 41.1331 103.079 41.0338 101.21 40.9392C99.311 40.8431 97.3772 40.7416 95.3956 40.6392C96.5498 42.4848 97.7308 44.3695 98.9237 46.2801C100.142 48.2203 101.375 50.2065 102.632 52.2204C104.65 52.2122 106.616 52.2036 108.547 52.1977C110.448 52.1899 112.302 52.1831 114.138 52.1726C112.851 50.2816 111.584 48.4051 110.34 46.565C109.118 44.7595 107.905 42.9772 106.722 41.2241Z" fill="#E51D3D"/>
<path d="M218.324 31.0528C216.651 31.0528 215.3 32.4177 215.3 34.0739C215.3 35.7438 216.651 37.106 218.324 37.106C219.986 37.106 221.346 35.7438 221.346 34.0739C221.346 32.4177 219.986 31.0528 218.324 31.0528ZM218.324 30.3965C220.349 30.3965 222 32.0527 222 34.0739C222 36.1079 220.349 37.7623 218.324 37.7623C216.297 37.7623 214.641 36.1079 214.641 34.0739C214.641 32.0527 216.297 30.3965 218.324 30.3965Z" fill="#E51D3D"/>
<path d="M217.83 32.53H218.325C219.041 32.53 219.083 32.9934 219.083 33.1458C219.083 33.4121 218.905 33.7689 218.325 33.7689H217.83V32.53ZM216.926 31.8246V36.3267H217.83V34.4794H218.182C218.484 34.4794 218.66 34.635 218.767 34.9022L219.34 36.3267H220.361L219.631 34.5881C219.515 34.3342 219.379 34.1621 219.157 34.113V34.0952C219.479 34.0201 220.027 33.7885 220.027 33.0507C220.027 32.4413 219.721 31.8246 218.52 31.8246H216.926Z" fill="#E51D3D"/>
</svg>
