<svg width="272" height="76" viewBox="0 0 272 76" fill="none" xmlns="http://www.w3.org/2000/svg">
<path d="M154.672 28.8286H117.986V32.5H154.672V28.8286Z" fill="#4FB0A3"/>
<path d="M154.672 36.1713H117.986V39.8427H154.672V36.1713Z" fill="#4FB0A3"/>
<path d="M154.672 43.4998H117.986V47.1712H154.672V43.4998Z" fill="#4FB0A3"/>
<path fill-rule="evenodd" clip-rule="evenodd" d="M236 28.8286H199.329V39.8286H232.343V43.5H199.329V47.1714H236V36.1714H202.986V32.5H236V28.8286ZM162.571 28.8286H158.857V47.1714H195.543V43.5H162.571V28.8286ZM113.571 28.8286H76.8857V32.5H93.3857V47.1714H97.0571V32.5H113.571V28.8286ZM72.6857 28.8286H36V39.8286H69.0143V43.5H36V47.1714H72.6857V36.1714H39.6714V32.5H72.6857V28.8286Z" fill="#201600"/>
</svg>
