<svg width="272" height="76" viewBox="0 0 272 76" fill="none" xmlns="http://www.w3.org/2000/svg">
<g clip-path="url(#clip0_1629_36094)">
<path fill-rule="evenodd" clip-rule="evenodd" d="M90.9858 33.7144C129.4 21.6144 189.872 11.8002 228.486 10.7144C217.414 14.7144 210.272 23.5716 208.629 33.8002C207.068 30.3264 206.177 26.5898 206 22.7859C186.657 21.1716 128.443 25.9573 90.9858 33.7144Z" fill="#DD1A1A"/>
<path d="M198.157 34.4144C198.494 34.4581 198.836 34.4078 199.146 34.2692C199.456 34.1305 199.722 33.9089 199.914 33.6287L200 33.5001C200 33.5001 200.585 32.2144 199.185 32.2144H196.428C195.771 32.2144 195.385 31.943 195.285 31.4144C195.241 31.1437 195.276 30.8659 195.385 30.6144L197.228 26.3287C197.338 26.0772 197.372 25.7994 197.328 25.5287C197.279 25.2784 197.137 25.0562 196.93 24.9075C196.723 24.7588 196.467 24.6949 196.214 24.7287C195.661 24.8669 195.125 25.0633 194.614 25.3144L179.614 32.5573C179.614 32.5573 178.542 33.0716 178.1 33.3144C177.657 33.5573 177.442 34.4001 178.757 34.4001H180C180.9 34.4001 181.714 34.6858 180.857 36.8287C180.371 38.0144 177.871 43.9716 177.871 43.9716L174.442 52.0573C174.333 52.3088 174.298 52.5865 174.342 52.8573C174.442 53.4001 174.828 53.6573 175.485 53.6573H184.057C184.57 53.6524 185.07 53.4876 185.485 53.1858C185.92 52.9185 186.255 52.5175 186.442 52.043L188.042 48.2858C188.122 48.1697 188.189 48.0451 188.242 47.9144L191.057 40.8573L191.757 39.2287L193.1 36.043C193.307 35.5725 193.65 35.1746 194.085 34.9001C194.505 34.6076 195.002 34.4483 195.514 34.443L198.157 34.4144Z" fill="black" stroke="black" stroke-width="0.25"/>
<path d="M222.3 36.0142H198.471C197.958 36.0228 197.46 36.1872 197.043 36.4857C196.609 36.7516 196.27 37.1461 196.071 37.6142L194.643 40.8142C194.538 41.0672 194.508 41.3449 194.557 41.6142C194.657 42.1428 195.043 42.4142 195.7 42.4142H204.271C204.782 42.4047 205.279 42.2457 205.7 41.9571C206.134 41.6919 206.474 41.2971 206.671 40.8285L207.357 39.2285C207.568 38.7643 207.904 38.3684 208.329 38.0857C208.742 37.7804 209.243 37.6152 209.757 37.6142C210.01 37.5804 210.266 37.6444 210.473 37.7931C210.68 37.9418 210.823 38.164 210.871 38.4142C210.917 38.6873 210.893 38.9676 210.8 39.2285L209.457 42.4142C209.238 42.8782 208.891 43.2698 208.457 43.5428C208.041 43.8437 207.542 44.0084 207.029 44.0142H195.114C194.6 44.0182 194.101 44.183 193.686 44.4857C193.259 44.7631 192.917 45.1538 192.7 45.6142L190 52.0142C189.891 52.2658 189.856 52.5435 189.9 52.8142C190 53.3571 190.386 53.6142 191.043 53.6142H214.857C215.371 53.6084 215.87 53.4437 216.286 53.1428C216.723 52.8815 217.064 52.4855 217.257 52.0142L223.343 37.6142C223.457 37.3641 223.492 37.0848 223.443 36.8142C223.422 36.6858 223.376 36.5627 223.307 36.4525C223.238 36.3422 223.147 36.2469 223.041 36.1723C222.934 36.0977 222.814 36.0452 222.686 36.0181C222.559 35.9909 222.428 35.9896 222.3 36.0142ZM207.429 47.2142L206 50.4142C205.796 50.8834 205.452 51.2777 205.014 51.5428C204.597 51.8412 204.099 52.0057 203.586 52.0142C203.332 52.0517 203.075 51.9892 202.867 51.8398C202.659 51.6905 202.517 51.4662 202.471 51.2142C202.427 50.9435 202.462 50.6658 202.571 50.4142L204 47.2142C204.21 46.7582 204.54 46.3682 204.956 46.0862C205.371 45.8042 205.856 45.641 206.357 45.6142C207.014 45.6142 207.4 45.8857 207.5 46.4142C207.553 46.6822 207.528 46.9599 207.429 47.2142Z" fill="black" stroke="black" stroke-width="0.25"/>
<path fill-rule="evenodd" clip-rule="evenodd" d="M230.086 35.5714H230.886C231.209 35.6071 231.534 35.6071 231.857 35.5714C231.982 35.5342 232.091 35.4593 232.172 35.3571C232.245 35.2424 232.28 35.1073 232.272 34.9714C232.28 34.8268 232.234 34.6843 232.143 34.5714C232.033 34.458 231.886 34.3872 231.729 34.3714H230.086V35.6428V35.5714ZM229 38.4286V33.4428H231.286C231.704 33.4248 232.123 33.4681 232.529 33.5714C232.783 33.6654 233.002 33.8349 233.157 34.0571C233.334 34.3194 233.418 34.6327 233.397 34.9481C233.377 35.2634 233.252 35.563 233.043 35.8C232.753 36.0687 232.38 36.2301 231.986 36.2571C232.195 36.373 232.387 36.5172 232.557 36.6857C232.785 36.9386 232.991 37.2111 233.172 37.5L233.829 38.4857H232.529L231.757 37.3857C231.58 37.1244 231.384 36.8761 231.172 36.6428C231.089 36.5459 230.98 36.4762 230.857 36.4428C230.677 36.4142 230.494 36.4142 230.314 36.4428H230.086V38.5428L229 38.4286ZM231.114 32.2857C231.848 32.333 232.552 32.5938 233.139 33.0359C233.727 33.4781 234.172 34.0823 234.421 34.7742C234.669 35.4662 234.71 36.2157 234.539 36.9306C234.367 37.6454 233.99 38.2945 233.454 38.798C232.918 39.3014 232.247 39.6372 231.523 39.7641C230.798 39.891 230.053 39.8035 229.378 39.5123C228.703 39.2211 228.127 38.7389 227.723 38.125C227.318 37.5111 227.102 36.7924 227.1 36.0571C227.134 35.0251 227.575 34.0486 228.328 33.3416C229.08 32.6346 230.082 32.2549 231.114 32.2857ZM231.114 31.4571C232.368 31.4186 233.585 31.8778 234.501 32.7345C235.416 33.5912 235.955 34.7755 236 36.0286C235.932 37.2805 235.387 38.4589 234.477 39.3212C233.567 40.1835 232.361 40.6641 231.107 40.6641C229.853 40.6641 228.647 40.1835 227.737 39.3212C226.827 38.4589 226.282 37.2805 226.214 36.0286C226.255 34.7692 226.794 33.5776 227.713 32.7152C228.632 31.8528 229.855 31.39 231.114 31.4286V31.4571Z" fill="black" stroke="black" stroke-width="0.25"/>
<path d="M79.8431 51.0429L84.1288 40.7858C84.2953 40.379 84.3495 39.935 84.286 39.5001C84.2159 39.0947 83.9896 38.7329 83.6557 38.4925C83.3218 38.2521 82.907 38.1522 82.5003 38.2144H58.2146C57.1431 38.2144 56.5431 37.7858 56.3717 36.9287C56.3029 36.495 56.3523 36.0509 56.5146 35.6429C56.5146 35.6429 56.3717 35.9144 57.6717 32.9429C57.7956 32.4534 58.0631 32.0123 58.44 31.6762C58.8168 31.3401 59.2856 31.1245 59.786 31.0572L70.5574 27.8429C72.7146 27.2144 72.5574 27.9572 72.4003 28.3572C71.2288 31.2144 70.5146 33.0858 70.5146 33.0858C70.3472 33.4873 70.2929 33.927 70.3574 34.3572C70.4275 34.7626 70.6538 35.1244 70.9877 35.3648C71.3216 35.6052 71.7364 35.7051 72.1431 35.6429H83.5717C84.386 35.6272 85.1769 35.3685 85.8431 34.9001C86.5493 34.4771 87.1042 33.8422 87.4288 33.0858L89.5717 28.0001C89.7788 27.6054 89.8491 27.1533 89.7717 26.7144C89.6146 25.8572 89.0003 25.4286 87.9431 25.4286H49.7431C48.9353 25.4435 48.1518 25.708 47.5003 26.1858C46.8091 26.6265 46.2587 27.2561 45.9146 28.0001L41.6288 38.2715C41.4256 38.6674 41.3507 39.1168 41.4146 39.5572C41.586 40.4144 42.2003 40.8429 43.2574 40.8429H64.5717C64.8802 40.8177 65.1897 40.8779 65.4663 41.0169C65.7429 41.1559 65.9758 41.3684 66.1396 41.6311C66.3034 41.8937 66.3917 42.1964 66.3948 42.5059C66.398 42.8154 66.3158 43.1199 66.1574 43.3858C65.4431 45.1144 64.9003 46.2429 63.7717 48.8858C63.1146 50.3858 62.886 51.0144 61.5146 51.0144H51.8146C50.7574 51.0144 50.5003 50.1572 50.7146 49.7001L52.2288 45.9715C52.4359 45.5769 52.5062 45.1247 52.4288 44.6858C52.2717 43.8287 51.6574 43.4001 50.6003 43.4001H42.1574C41.3504 43.4195 40.5682 43.6835 39.9146 44.1572C39.2234 44.5979 38.673 45.2275 38.3288 45.9715L36.186 51.0429C36.0174 51.4341 35.9534 51.8624 36.0003 52.2858C36.0704 52.6912 36.2967 53.053 36.6305 53.2934C36.9644 53.5338 37.3793 53.6336 37.786 53.5715H76.0003C76.8138 53.5515 77.6036 53.2933 78.2717 52.8287C78.9718 52.4154 79.5222 51.7899 79.8431 51.0429Z" fill="black" stroke="black" stroke-width="0.25"/>
<path d="M115.8 36.8144C115.7 36.2859 115.314 36.0144 114.657 36.0144H90.8428C90.3291 36.0184 89.8295 36.1832 89.4143 36.4859C88.9842 36.7597 88.6421 37.1515 88.4286 37.6144L81.1286 55.0144C80.9278 55.4878 80.8779 56.0116 80.9857 56.5144C81.0361 56.8535 81.1739 57.1735 81.3857 57.443L87.5429 64.943C87.6012 65.047 87.6863 65.1336 87.7892 65.1939C87.8921 65.2541 88.0093 65.2859 88.1286 65.2859C88.5143 65.2859 88.8143 65.0001 89.0571 64.4144L92.9429 55.2144C93.1497 54.7516 93.4874 54.3593 93.9143 54.0859C94.3303 53.7849 94.8294 53.6203 95.3429 53.6144H107.257C107.771 53.6086 108.27 53.4439 108.686 53.143C109.116 52.8692 109.458 52.4774 109.671 52.0144L115.729 37.6144C115.828 37.3601 115.853 37.0824 115.8 36.8144ZM103.143 39.2144L98.4286 50.4144C98.2315 50.8791 97.8976 51.2727 97.4714 51.543C97.0562 51.8456 96.5566 52.0105 96.0428 52.0144C95.3857 52.0144 95 51.7573 94.9 51.2144C94.8558 50.9437 94.8905 50.666 95 50.4144L99.7143 39.2144C99.9278 38.7515 100.27 38.3597 100.7 38.0859C101.115 37.7832 101.615 37.6184 102.129 37.6144C102.8 37.6144 103.171 37.8859 103.286 38.4144C103.326 38.6895 103.276 38.9702 103.143 39.2144Z" fill="black" stroke="black" stroke-width="0.25"/>
<path d="M146.471 36.8144C146.371 36.2859 146 36.0144 145.357 36.0144H121.543C121.03 36.023 120.531 36.1874 120.114 36.4859C119.677 36.7472 119.336 37.1432 119.143 37.6144L117.714 40.8144C117.609 41.0674 117.58 41.3451 117.628 41.6144C117.728 42.143 118.114 42.4144 118.771 42.4144H127.343C127.856 42.4068 128.354 42.2423 128.771 41.943C129.207 41.6869 129.548 41.2958 129.743 40.8287L130.414 39.2287C130.631 38.7639 130.972 38.3683 131.4 38.0859C131.814 37.7806 132.314 37.6154 132.828 37.6144C133.081 37.5806 133.337 37.6446 133.544 37.7933C133.751 37.942 133.894 38.1642 133.943 38.4144C134.004 38.6824 134.004 38.9608 133.943 39.2287L132.514 42.4144C132.301 42.8774 131.958 43.2692 131.528 43.543C131.112 43.8431 130.613 44.0077 130.1 44.0144H118.157C117.643 44.0184 117.144 44.1832 116.728 44.4859C116.301 44.7633 115.96 45.154 115.743 45.6144L113.028 52.0144C112.924 52.2674 112.894 52.5451 112.943 52.8144C113.043 53.3573 113.428 53.6144 114.086 53.6144H137.928C138.442 53.6068 138.94 53.4423 139.357 53.143C139.79 52.8771 140.13 52.4826 140.328 52.0144L146.414 37.6144C146.509 37.3587 146.529 37.0811 146.471 36.8144ZM130.414 47.2144L128.986 50.4144C128.792 50.8857 128.451 51.2817 128.014 51.543C127.597 51.8414 127.099 52.0059 126.586 52.0144C125.943 52.0144 125.571 51.743 125.471 51.2144C125.427 50.9437 125.462 50.666 125.571 50.4144L127 47.2144C127.209 46.7605 127.537 46.3718 127.95 46.09C128.362 45.8082 128.844 45.6438 129.343 45.6144C130.014 45.6144 130.386 45.8859 130.486 46.4144C130.551 46.6817 130.526 46.963 130.414 47.2144Z" fill="black" stroke="black" stroke-width="0.25"/>
<path d="M176 36.0144H152.243C151.73 36.023 151.232 36.1874 150.815 36.4859C150.377 36.7472 150.037 37.1432 149.843 37.6144L143.772 52.0144C143.705 52.1827 143.671 52.3621 143.672 52.543C143.658 52.6185 143.658 52.6961 143.672 52.7716C143.689 52.845 143.713 52.9167 143.743 52.9859C143.829 53.1812 143.988 53.3351 144.186 53.4144H144.372C144.49 53.4294 144.61 53.4294 144.729 53.4144H153.3C153.81 53.3986 154.305 53.2403 154.729 52.9575C155.153 52.6747 155.49 52.2787 155.7 51.8144C156.129 50.843 157.358 47.943 157.358 47.943C157.495 47.6508 157.69 47.3886 157.929 47.1716C158.434 46.7459 159.084 46.5311 159.743 46.5716C159.937 46.5551 160.132 46.5884 160.31 46.6684C160.487 46.7484 160.641 46.8724 160.758 47.0287C160.857 47.1949 160.91 47.385 160.91 47.5787C160.91 47.7724 160.857 47.9625 160.758 48.1287C160.758 48.1287 159.458 51.1716 159.115 52.0001C158.772 52.8287 158.986 53.6001 159.986 53.6001H168.558C168.895 53.5967 169.228 53.5253 169.537 53.3903C169.847 53.2553 170.126 53.0595 170.358 52.8144C170.605 52.6015 170.805 52.3386 170.943 52.043C170.943 52.043 171.758 50.1859 172.372 48.6287C172.986 47.0716 170.386 46.0573 169.915 46.0573C170.572 46.0573 173.715 45.5573 174.558 43.5716L177 38.0001C177.1 37.8001 177.886 36.0144 176 36.0144ZM160.286 45.0287C159.643 45.0287 159.472 44.8859 159.272 44.5859C159.179 44.4147 159.131 44.2233 159.131 44.0287C159.131 43.8342 159.179 43.6427 159.272 43.4716L160.915 39.6144C161.076 39.3172 161.284 39.0473 161.529 38.8144C161.769 38.5619 162.056 38.3597 162.375 38.2199C162.694 38.0801 163.038 38.0053 163.386 38.0001C163.577 37.9784 163.769 38.0096 163.943 38.0902C164.117 38.1708 164.265 38.2979 164.372 38.4573C164.485 38.6409 164.536 38.8567 164.515 39.0716C164.513 39.1049 164.513 39.1383 164.515 39.1716C164.515 39.1716 162.815 43.2001 162.558 43.7144C162.377 44.1285 162.072 44.4769 161.686 44.712C161.3 44.9472 160.851 45.0578 160.4 45.0287H160.286Z" fill="black" stroke="black" stroke-width="0.25"/>
</g>
<defs>
<clipPath id="clip0_1629_36094">
<rect width="200" height="57.1429" fill="white" transform="translate(36 9.42856)"/>
</clipPath>
</defs>
</svg>
